<svg xmlns="http://www.w3.org/2000/svg" width="22.4" height="21.528" viewBox="0 0 22.4 21.528"><defs><style>.a{fill:#fff;}</style></defs><g transform="translate(0)"><path class="a" d="M7.764,21.528a1.482,1.482,0,0,1-1.482-1.482V5.3L2.576,9.358a1.482,1.482,0,0,1-2.189-2L6.67.483a1.482,1.482,0,0,1,2.576,1V20.046a1.482,1.482,0,0,1-1.482,1.482" transform="translate(0 0)"/><path class="a" d="M14.793,21.528a1.466,1.466,0,0,1-.536-.1,1.482,1.482,0,0,1-.947-1.381V1.483a1.482,1.482,0,1,1,2.964,0V16.225l3.706-4.054a1.482,1.482,0,1,1,2.189,2l-6.282,6.876a1.483,1.483,0,0,1-1.095.482" transform="translate(-0.157 0)"/></g></svg>