<svg xmlns="http://www.w3.org/2000/svg" width="30.001" height="30" viewBox="0 0 30.001 30"><defs><style>.a{fill:#237ff8;}</style></defs><g transform="translate(0 0)"><g transform="translate(0 0)"><path class="a" d="M27.426,25.21a1.975,1.975,0,1,1-1.975-1.971,1.972,1.972,0,0,1,1.975,1.971" transform="translate(-10.358 -10.281)"/><rect class="a" width="6.965" height="2.843" transform="translate(22.26 10.756)"/><rect class="a" width="6.965" height="2.843" transform="translate(21.785 16.442)"/><path class="a" d="M25.912,20.744a6.684,6.684,0,1,1,0-2.786h2.893a9.526,9.526,0,1,0,0,2.786Z" transform="translate(-4.33 -4.342)"/><path class="a" d="M23.713,18.352a3.873,3.873,0,0,1,2.56.964l1.439-1.42a5.907,5.907,0,0,0-8.038.038L21.1,19.361a3.877,3.877,0,0,1,2.611-1.009" transform="translate(-8.68 -7.228)"/><path class="a" d="M33.5,19.733l-1.437,1.418a3.862,3.862,0,0,1-.025,5.186l1.428,1.426a5.876,5.876,0,0,0,.034-8.029" transform="translate(-14.138 -8.73)"/><path class="a" d="M23.7,33.049a3.875,3.875,0,0,1-2.618-1.015l-1.437,1.417a5.909,5.909,0,0,0,8.018.086l-1.432-1.429a3.873,3.873,0,0,1-2.532.94" transform="translate(-8.668 -14.172)"/><path class="a" d="M19.293,26.284a3.859,3.859,0,0,1,.006-5.048l-1.432-1.429a5.88,5.88,0,0,0-.014,7.9Z" transform="translate(-7.209 -8.762)"/><path class="a" d="M24.948,21.244a2.733,2.733,0,0,1,1.745.627l.678-.669a3.694,3.694,0,0,0-4.9.045l.674.672a2.732,2.732,0,0,1,1.8-.676" transform="translate(-9.915 -8.979)"/><path class="a" d="M30.614,23.187a2.724,2.724,0,0,1-.02,3.574l.674.672a3.676,3.676,0,0,0,.023-4.915Z" transform="translate(-13.499 -9.962)"/><path class="a" d="M21.855,26.72a2.723,2.723,0,0,1,0-3.435l-.675-.674a3.675,3.675,0,0,0-.005,4.778Z" transform="translate(-8.955 -10.004)"/><path class="a" d="M24.943,31.269a2.732,2.732,0,0,1-1.8-.677l-.678.669a3.7,3.7,0,0,0,4.877.074l-.675-.674a2.734,2.734,0,0,1-1.721.608" transform="translate(-9.911 -13.534)"/><path class="a" d="M34.8,39.345v3.009A15.019,15.019,0,0,0,45.355,29.417H42.49A12.193,12.193,0,0,1,34.8,39.345" transform="translate(-15.356 -13.014)"/><path class="a" d="M34.8,4.195a12.193,12.193,0,0,1,7.689,9.947h2.864A15.016,15.016,0,0,0,34.8,1.186Z" transform="translate(-15.356 -0.525)"/><path class="a" d="M16.323,27.084a12.324,12.324,0,0,1-1.29.073,12.157,12.157,0,1,1,0-24.314,12.324,12.324,0,0,1,1.29.073V.057C15.9.021,15.467,0,15.032,0a15,15,0,1,0,0,30c.435,0,.864-.021,1.29-.057Z" transform="translate(0 0)"/></g></g></svg>